<svg viewBox="0 0 24 24" xmlns="http://www.w3.org/2000/svg"><path d="M11.414 8h3.672a2.475 2.475 0 0 1 .8.134.249.249 0 0 0 .321-.168l.271-.95A.023.023 0 0 1 16.5 7a2 2 0 0 0 2-2V2a2 2 0 0 0-2-2H10a2 2 0 0 0-2 2v3a2 2 0 0 0 2 2 .021.021 0 0 1 .02.016l.272.95a.244.244 0 0 0 .124.152.251.251 0 0 0 .2.016A2.466 2.466 0 0 1 11.414 8ZM10 2.5a.5.5 0 0 1 .5-.5H16a.5.5 0 0 1 .5.5v2a.5.5 0 0 1-.5.5h-5.5a.5.5 0 0 1-.5-.5Z" fill="#b29e93" class="fill-000000"></path><circle cx="13.25" cy="17.25" r="3.25" fill="#b29e93" class="fill-000000"></circle><path d="M20.5 11h-2.586a.5.5 0 0 1-.354-.146L16.146 9.44a1.507 1.507 0 0 0-1.06-.44h-3.672a1.51 1.51 0 0 0-1.061.44l-1.414 1.414a.5.5 0 0 1-.353.146H3.5A2.5 2.5 0 0 0 1 13.5v8A2.5 2.5 0 0 0 3.5 24h17a2.5 2.5 0 0 0 2.5-2.5v-8a2.5 2.5 0 0 0-2.5-2.5ZM6 14.75a1.25 1.25 0 1 1-1.25-1.25A1.25 1.25 0 0 1 6 14.75Zm2 2.5a5.25 5.25 0 1 1 5.25 5.25A5.256 5.256 0 0 1 8 17.25ZM7 9.5A1.5 1.5 0 0 0 5.5 8h-1A1.5 1.5 0 0 0 3 9.5a.5.5 0 0 0 .5.5h3a.5.5 0 0 0 .5-.5Z" fill="#b29e93" class="fill-000000"></path></svg>